<svg width="24" height="24" viewBox="0 0 24 24" fill="none" xmlns="http://www.w3.org/2000/svg">
<path fill-rule="evenodd" clip-rule="evenodd" d="M12 20.25C16.5563 20.25 20.25 16.5564 20.25 12C20.25 7.44365 16.5564 3.75 12 3.75C7.44365 3.75 3.75 7.44365 3.75 12C3.75 16.5563 7.44365 20.25 12 20.25ZM21.75 12C21.75 17.3848 17.3848 21.75 12 21.75C6.61522 21.75 2.25 17.3848 2.25 12C2.25 6.61522 6.61522 2.25 12 2.25C17.3848 2.25 21.75 6.61523 21.75 12Z" fill="#6C5CE7"/>
<path fill-rule="evenodd" clip-rule="evenodd" d="M15.8767 13.6825C15.5688 13.9596 15.0946 13.9346 14.8175 13.6267L12 10.4961L9.18246 13.6267C8.90537 13.9346 8.43115 13.9596 8.12327 13.6825C7.81539 13.4054 7.79043 12.9312 8.06752 12.6233L11.4425 8.87327C11.5848 8.71524 11.7874 8.625 12 8.625C12.2126 8.625 12.4152 8.71524 12.5575 8.87327L15.9325 12.6233C16.2096 12.9312 16.1846 13.4054 15.8767 13.6825Z" fill="#6C5CE7"/>
</svg>
