<svg width="24" height="24" viewBox="0 0 24 24" fill="none" xmlns="http://www.w3.org/2000/svg">
<path fill-rule="evenodd" clip-rule="evenodd" d="M3.9955 3.19505C4.30199 2.91642 4.77633 2.93901 5.05496 3.2455L20.055 19.7455C20.3336 20.052 20.311 20.5263 20.0045 20.805C19.698 21.0836 19.2237 21.061 18.9451 20.7545L3.94505 4.25451C3.66642 3.94802 3.68901 3.47368 3.9955 3.19505Z" fill="#6C5CE7"/>
<path fill-rule="evenodd" clip-rule="evenodd" d="M10.0332 8.72016C10.3118 9.02668 10.2892 9.50101 9.98267 9.77961C9.5346 10.1869 9.22025 10.7202 9.08095 11.3095C8.94166 11.8987 8.98393 12.5163 9.20222 13.0811C9.4205 13.6459 9.80459 14.1314 10.304 14.4738C10.8034 14.8163 11.3947 14.9995 12.0002 14.9996L12.0029 14.9996C12.7477 15.0025 13.4662 14.7247 14.0153 14.2216C14.3208 13.9418 14.7952 13.9626 15.075 14.268C15.3548 14.5734 15.334 15.0478 15.0286 15.3276C14.2017 16.0851 13.12 16.5035 11.9986 16.4996C11.0909 16.4992 10.2044 16.2243 9.45571 15.711C8.70664 15.1973 8.13051 14.4691 7.80308 13.6219C7.47565 12.7747 7.41224 11.8483 7.62119 10.9644C7.83013 10.0805 8.30165 9.28051 8.97376 8.66961C9.28028 8.39101 9.75461 8.41364 10.0332 8.72016Z" fill="#6C5CE7"/>
<path fill-rule="evenodd" clip-rule="evenodd" d="M7.60689 6.09279C7.79358 6.46255 7.64518 6.91364 7.27542 7.10033C5.49276 8.0004 4.21533 9.30424 3.37972 10.3954C2.96317 10.9394 2.6606 11.4251 2.46368 11.7716C2.41552 11.8563 2.37377 11.9326 2.33828 11.9992C2.42652 12.1645 2.55329 12.3891 2.7205 12.6547C3.09628 13.2515 3.67199 14.0485 4.46772 14.8442C6.05485 16.4314 8.49932 17.9996 11.9999 17.9996H12.006C13.6442 18.0129 15.2619 17.6355 16.725 16.8985C17.0949 16.7122 17.5459 16.861 17.7322 17.2309C17.9186 17.6009 17.7697 18.0518 17.3998 18.2381C15.7246 19.082 13.8724 19.5144 11.9968 19.4996C7.99899 19.4986 5.19446 17.6923 3.40706 15.9049C2.51529 15.0131 1.87224 14.1227 1.45115 13.4539C1.24024 13.1189 1.08394 12.8378 0.97907 12.6376C0.926609 12.5375 0.886936 12.4574 0.85966 12.4007C0.84602 12.3724 0.835472 12.3499 0.827969 12.3337L0.818988 12.3141L0.816196 12.3079L0.815223 12.3057L0.814842 12.3049C0.81468 12.3045 0.814531 12.3042 1.49989 11.9996C0.814239 11.6956 0.814347 11.6954 0.814461 11.6951L0.815351 11.6931L0.817067 11.6893L0.822322 11.6777C0.826637 11.6683 0.832581 11.6554 0.840173 11.6392C0.855355 11.6069 0.877141 11.5615 0.905684 11.5044C0.962752 11.3901 1.04695 11.2286 1.15954 11.0305C1.38449 10.6346 1.72411 10.0903 2.18881 9.48343C3.1157 8.27304 4.55702 6.7925 6.59936 5.76132C6.96911 5.57463 7.4202 5.72304 7.60689 6.09279ZM1.49989 11.9996L0.814461 11.6951C0.728559 11.8889 0.728444 12.1105 0.814531 12.3042L1.49989 11.9996Z" fill="#6C5CE7"/>
<path fill-rule="evenodd" clip-rule="evenodd" d="M9.93562 4.66969C10.6181 4.55545 11.3089 4.4987 12.0008 4.50002C12.0011 4.50002 12.0006 4.50002 12.0008 4.50002L12.0001 5.25002V4.50002C12.0003 4.50002 12.0006 4.50002 12.0008 4.50002C15.9999 4.50025 18.8051 6.30694 20.5929 8.09469C21.4847 8.98646 22.1277 9.87693 22.5488 10.5457C22.7597 10.8807 22.916 11.1618 23.0209 11.362C23.0733 11.4621 23.113 11.5422 23.1403 11.5989C23.1539 11.6272 23.1645 11.6497 23.172 11.6659L23.181 11.6855L23.1838 11.6917L23.1847 11.6939L23.1851 11.6947C23.1853 11.6951 23.1854 11.6954 22.5001 12C21.8147 11.6954 21.8148 11.6953 21.8149 11.6951L21.8092 11.7075C21.8038 11.7189 21.795 11.7377 21.7826 11.7632C21.7579 11.8142 21.719 11.892 21.6655 11.9925C21.6642 11.995 21.6628 11.9975 21.6615 12C21.5733 11.8348 21.4465 11.6103 21.2795 11.3449C20.9037 10.7481 20.328 9.95108 19.5322 9.15535C17.9451 7.56822 15.5006 6.00002 12.0001 6.00002H11.9986C11.3904 5.99882 10.7831 6.04869 10.1833 6.14911C9.77474 6.21749 9.38812 5.94175 9.31974 5.53322C9.25135 5.12469 9.52709 4.73808 9.93562 4.66969ZM22.5001 12L23.1854 12.3046C23.2716 12.1107 23.2716 11.8893 23.1854 11.6954L22.5001 12ZM21.6615 12C21.5543 12.2008 21.3906 12.4885 21.1669 12.8306C20.7128 13.525 20.0179 14.434 19.0563 15.2942C18.7476 15.5703 18.7212 16.0444 18.9973 16.3532C19.2735 16.6619 19.7476 16.6883 20.0563 16.4121C21.1385 15.4441 21.9155 14.4266 22.4223 13.6515C22.6763 13.2631 22.8639 12.9333 22.9895 12.6975C23.0523 12.5796 23.0997 12.4849 23.1322 12.418C23.1484 12.3846 23.1609 12.358 23.1698 12.339L23.1803 12.316L23.1835 12.3088L23.1847 12.3064L23.1851 12.3054C23.1852 12.3052 23.1854 12.3046 22.5001 12C21.8147 12.3046 21.8148 12.3049 21.815 12.3052L21.8105 12.2954C21.8062 12.2861 21.799 12.2707 21.7888 12.2496C21.7685 12.2074 21.7364 12.1424 21.6921 12.058C21.6825 12.0396 21.6723 12.0202 21.6615 12Z" fill="#6C5CE7"/>
<path fill-rule="evenodd" clip-rule="evenodd" d="M11.9661 8.17594C12.0432 7.76897 12.4357 7.50157 12.8426 7.57868C13.8 7.76007 14.6724 8.24795 15.3282 8.96868C15.9839 9.68941 16.3875 10.6039 16.4779 11.5741C16.5163 11.9865 16.2132 12.352 15.8007 12.3905C15.3883 12.4289 15.0228 12.1257 14.9844 11.7133C14.9242 11.0672 14.6554 10.4581 14.2187 9.97816C13.782 9.49817 13.201 9.17326 12.5634 9.05246C12.1564 8.97534 11.889 8.58292 11.9661 8.17594Z" fill="#6C5CE7"/>
</svg>
